<svg xmlns="http://www.w3.org/2000/svg" width="37.546" height="37.546" viewBox="0 0 37.546 37.546">
  <g id="Icone_Twitter_bleu" transform="translate(0.5 0.5)">
    <line id="Ligne_10" data-name="Ligne 10" x2="36.546" fill="none" stroke="#262e51" stroke-linecap="square" stroke-width="1"/>
    <line id="Ligne_11" data-name="Ligne 11" x2="36.546" transform="translate(36.546) rotate(90)" fill="none" stroke="#262e51" stroke-linecap="square" stroke-width="1"/>
    <path id="Icon_awesome-twitter" data-name="Icon awesome-twitter" d="M21.991,8.342c.016.218.016.435.016.653A14.2,14.2,0,0,1,7.714,23.288,14.2,14.2,0,0,1,0,21.033a10.392,10.392,0,0,0,1.213.062A10.06,10.06,0,0,0,7.45,18.949a5.032,5.032,0,0,1-4.7-3.484,6.335,6.335,0,0,0,.949.078,5.313,5.313,0,0,0,1.322-.171A5.024,5.024,0,0,1,1,10.442v-.062a5.059,5.059,0,0,0,2.271.638A5.031,5.031,0,0,1,1.711,4.3,14.279,14.279,0,0,0,12.069,9.555,5.671,5.671,0,0,1,11.944,8.4a5.028,5.028,0,0,1,8.694-3.437,9.89,9.89,0,0,0,3.188-1.213,5.01,5.01,0,0,1-2.208,2.768,10.071,10.071,0,0,0,2.893-.778,10.8,10.8,0,0,1-2.519,2.6Z" transform="translate(6.018 4.939)" fill="#262e51"/>
  </g>
</svg>
