<svg id="logo_image" xmlns="http://www.w3.org/2000/svg" width="27" height="19" viewBox="0 0 27 19">
  <g id="Rectangle_59" data-name="Rectangle 59" fill="#fff" stroke="#bbb" stroke-width="1">
    <rect width="27" height="19" stroke="none"/>
    <rect x="0.5" y="0.5" width="26" height="18" fill="none"/>
  </g>
  <g id="Tracé_14" data-name="Tracé 14" transform="translate(3 5)" fill="#bbb">
    <path d="M 13.19098567962646 13.5 L 0.8090154528617859 13.5 L 7.000000476837158 1.118029952049255 L 13.19098567962646 13.5 Z" stroke="none"/>
    <path d="M 7.000000476837158 2.236069679260254 L 1.618035316467285 13 L 12.38196563720703 13 L 7.000000476837158 2.236069679260254 M 7.000000476837158 0 L 14 14 L 9.5367431640625e-07 14 L 7.000000476837158 0 Z" stroke="none" fill="#bbb"/>
  </g>
  <g id="Polygone_2" data-name="Polygone 2" transform="translate(10 10)" fill="#bbb">
    <path d="M 12.97767639160156 8.5 L 1.022323369979858 8.5 L 7 0.8144156932830811 L 12.97767639160156 8.5 Z" stroke="none"/>
    <path d="M 7 1.628818511962891 L 2.044636726379395 8 L 11.95536327362061 8 L 7 1.628818511962891 M 7 0 L 14 9 L 0 9 L 7 0 Z" stroke="none" fill="#bbb"/>
  </g>
  <g id="Ellipse_10" data-name="Ellipse 10" transform="translate(18 4)" fill="#bbb" stroke="#bbb" stroke-width="1">
    <circle cx="2.5" cy="2.5" r="2.5" stroke="none"/>
    <circle cx="2.5" cy="2.5" r="2" fill="none"/>
  </g>
</svg>
